<svg width="44" height="44" viewBox="0 0 44 44" fill="none" xmlns="http://www.w3.org/2000/svg">
<g clip-path="url(#clip0_1_3345)">
<path d="M34.825 14.397C33.8623 13.9463 32.6943 14.0227 31.7788 14.425L13.9269 22.2711L8.6888 19.5486C8.38499 19.3545 8.07011 19.3836 7.79547 19.5043L5.04903 20.7114C4.77438 20.8321 4.53997 21.0444 4.47759 21.3995C4.37496 21.6631 4.53591 22.0293 4.65662 22.3039L11.829 31.1671C12.1731 31.4528 12.66 31.5665 13.0262 31.4056L18.8852 28.8305L18.5198 36.2004C18.4574 36.5555 18.7099 36.8815 18.9221 37.1159C19.1857 37.2185 19.6323 37.2407 19.907 37.12L23.5689 35.5105C23.8436 35.3898 24.078 35.1776 24.089 34.9542L27.3077 25.1287L34.9977 21.7489C36.0047 21.3063 36.7593 20.5377 37.0782 19.5237C37.4887 18.4694 37.4525 17.393 37.0502 16.4775C36.6478 15.562 35.839 14.7159 34.825 14.397Z" fill="#EC634E"/>
<path d="M14.8616 19.6757L22.6432 16.2556L15.6808 13.0894C15.4172 12.9868 15.1024 13.016 14.8277 13.1367L11.1658 14.7461C10.8911 14.8668 10.6054 15.2109 10.543 15.566C10.5722 15.8809 10.6929 16.1555 10.9052 16.3899L14.8616 19.6757Z" fill="#EC634E"/>
</g>
<defs>
<clipPath id="clip0_1_3345">
<rect width="32" height="32" fill="white" transform="translate(0.914551 13.79) rotate(-23.7259)"/>
</clipPath>
</defs>
</svg>
