<svg width="183" height="205" viewBox="0 0 183 205" fill="none" xmlns="http://www.w3.org/2000/svg">
<g clip-path="url(#clip0_1_3535)">
<path d="M130.274 80.699C130.172 80.212 130.05 79.7351 129.979 79.5828L116.582 49.4056C116.521 49.2737 116.49 49.1317 116.501 48.9795C116.734 37.8482 118.554 28.0158 114.508 19.5024C103.235 -6.16951 61.5487 0.750748 59.475 1.11604C59.4242 1.12619 59.3632 1.12619 59.3124 1.12619C29.3359 1.17692 3.15091 26.5749 0.58934 62.1097C0.58934 62.1604 0.58934 62.2112 0.58934 62.2518L0.680824 63.5201L0.58934 62.6678C0.58934 62.6678 -2.36867 93.4132 4.95011 103.581C15.7351 127.73 44.2581 137.025 74.3667 140.607V173.686L128.688 204.99L183 173.686V111.079L130.274 80.699ZM27.8111 77.6042C20.2687 54.0225 36.1769 28.8478 59.4039 28.8478C67.3935 28.8478 75.6882 30.999 79.683 38.8933C84.43 48.2692 91.9013 55.2605 102.93 56.8535C103.134 56.884 103.317 56.9753 103.469 57.1072L127.773 80.1003L127.936 80.212L90.9559 101.521L59.3937 102.13C44.7053 101.937 32.4464 92.0941 27.8111 77.6042ZM171.757 167.212L128.688 192.032L85.6193 167.212V117.573L128.749 80.7903L130.366 81.9268C130.396 81.8862 130.406 81.805 130.406 81.7036L171.757 117.573V167.212Z" fill="#EC634E"/>
<path d="M93.2942 30.4715C95.9889 30.4715 98.1734 28.2908 98.1734 25.6009C98.1734 22.911 95.9889 20.7303 93.2942 20.7303C90.5995 20.7303 88.415 22.911 88.415 25.6009C88.415 28.2908 90.5995 30.4715 93.2942 30.4715Z" fill="#4F4294"/>
<path d="M128.689 142.393L93.345 122.028V162.768L128.689 183.133L164.032 162.768V122.028L128.689 142.393Z" fill="#A3BB43"/>
</g>
<defs>
<clipPath id="clip0_1_3535">
<rect width="183" height="205" fill="white"/>
</clipPath>
</defs>
</svg>
